<svg xmlns="http://www.w3.org/2000/svg" viewBox="0 0 100 100">
  <defs>
    <linearGradient id="bg" x1="0" y1="0" x2="0" y2="1">
      <stop offset="0%" stop-color="#C48040"/>
      <stop offset="100%" stop-color="#8B4513"/>
    </linearGradient>
  </defs>
  <!-- Antennae -->
  <path d="M38 38 Q30 20 22 12" stroke="#8B4513" stroke-width="3.5" stroke-linecap="round" fill="none"/>
  <path d="M62 38 Q70 20 78 12" stroke="#8B4513" stroke-width="3.5" stroke-linecap="round" fill="none"/>
  <circle cx="21" cy="11" r="5" fill="#C48040"/>
  <circle cx="79" cy="11" r="5" fill="#C48040"/>
  <!-- Head -->
  <ellipse cx="50" cy="52" rx="32" ry="28" fill="url(#bg)"/>
  <!-- Eyes -->
  <ellipse cx="40" cy="48" rx="9" ry="10" fill="white"/>
  <ellipse cx="60" cy="48" rx="9" ry="10" fill="white"/>
  <circle cx="43" cy="48" r="5" fill="#1a1a1a"/>
  <circle cx="63" cy="48" r="5" fill="#1a1a1a"/>
  <circle cx="45" cy="45" r="2" fill="white"/>
  <circle cx="65" cy="45" r="2" fill="white"/>
  <!-- Smile -->
  <path d="M40 62 Q50 72 60 62" stroke="#5C2D0A" stroke-width="2.5" stroke-linecap="round" fill="none"/>
  <!-- Graduation cap -->
  <polygon points="18,40 50,26 82,40 50,54" fill="#2a2a2a"/>
  <rect x="43" y="22" width="14" height="6" rx="1" fill="#333"/>
  <rect x="42" y="20" width="16" height="4" rx="1" fill="#3a3a3a"/>
  <!-- Tassel -->
  <path d="M82 40 Q84 50 83 56" stroke="#FFD700" stroke-width="2" stroke-linecap="round" fill="none"/>
  <circle cx="83" cy="58" r="3" fill="#FFD700"/>
  <!-- Body hint -->
  <ellipse cx="50" cy="82" rx="20" ry="14" fill="url(#bg)"/>
  <ellipse cx="50" cy="92" rx="14" ry="8" fill="url(#bg)" opacity=".6"/>
</svg>